<mxfile host="Electron" agent="Mozilla/5.0 (Windows NT 10.0; Win64; x64) AppleWebKit/537.36 (KHTML, like Gecko) draw.io/25.0.2 Chrome/128.0.6613.186 Electron/32.2.5 Safari/537.36" version="25.0.2">
  <diagram name="Страница — 1" id="oUY4tjAmp5w0PYhFCFzl">
    <mxGraphModel dx="592" dy="805" grid="1" gridSize="10" guides="1" tooltips="1" connect="1" arrows="1" fold="1" page="1" pageScale="1" pageWidth="827" pageHeight="1169" math="0" shadow="0">
      <root>
        <mxCell id="0" />
        <mxCell id="1" parent="0" />
        <mxCell id="XQmCyHVSKKdl3dzrTI3q-1" style="edgeStyle=orthogonalEdgeStyle;rounded=0;orthogonalLoop=1;jettySize=auto;html=1;" edge="1" parent="1" source="XQmCyHVSKKdl3dzrTI3q-2">
          <mxGeometry relative="1" as="geometry">
            <mxPoint x="280" y="200" as="targetPoint" />
          </mxGeometry>
        </mxCell>
        <mxCell id="XQmCyHVSKKdl3dzrTI3q-2" value="Начало" style="strokeWidth=2;html=1;shape=mxgraph.flowchart.start_1;whiteSpace=wrap;" vertex="1" parent="1">
          <mxGeometry x="230" y="120" width="100" height="40" as="geometry" />
        </mxCell>
        <mxCell id="XQmCyHVSKKdl3dzrTI3q-17" style="edgeStyle=orthogonalEdgeStyle;rounded=0;orthogonalLoop=1;jettySize=auto;html=1;" edge="1" parent="1" source="XQmCyHVSKKdl3dzrTI3q-4" target="XQmCyHVSKKdl3dzrTI3q-16">
          <mxGeometry relative="1" as="geometry" />
        </mxCell>
        <mxCell id="XQmCyHVSKKdl3dzrTI3q-4" value="Добавить оценку объекту недвижимости" style="shape=process;whiteSpace=wrap;html=1;backgroundOutline=1;" vertex="1" parent="1">
          <mxGeometry x="80" y="440" width="120" height="60" as="geometry" />
        </mxCell>
        <mxCell id="XQmCyHVSKKdl3dzrTI3q-8" style="edgeStyle=orthogonalEdgeStyle;rounded=0;orthogonalLoop=1;jettySize=auto;html=1;entryX=0.5;entryY=0;entryDx=0;entryDy=0;" edge="1" parent="1" source="XQmCyHVSKKdl3dzrTI3q-14" target="XQmCyHVSKKdl3dzrTI3q-4">
          <mxGeometry relative="1" as="geometry">
            <Array as="points" />
          </mxGeometry>
        </mxCell>
        <mxCell id="XQmCyHVSKKdl3dzrTI3q-5" value="Список пуст?" style="rhombus;whiteSpace=wrap;html=1;" vertex="1" parent="1">
          <mxGeometry x="215" y="200" width="130" height="60" as="geometry" />
        </mxCell>
        <mxCell id="XQmCyHVSKKdl3dzrTI3q-6" value="Нет" style="text;html=1;align=center;verticalAlign=middle;resizable=0;points=[];autosize=1;strokeColor=none;fillColor=none;" vertex="1" parent="1">
          <mxGeometry x="170" y="198" width="40" height="30" as="geometry" />
        </mxCell>
        <mxCell id="XQmCyHVSKKdl3dzrTI3q-7" value="Да" style="text;html=1;align=center;verticalAlign=middle;resizable=0;points=[];autosize=1;strokeColor=none;fillColor=none;" vertex="1" parent="1">
          <mxGeometry x="340" y="198" width="40" height="30" as="geometry" />
        </mxCell>
        <mxCell id="XQmCyHVSKKdl3dzrTI3q-13" value="" style="edgeStyle=orthogonalEdgeStyle;rounded=0;orthogonalLoop=1;jettySize=auto;html=1;entryX=0.5;entryY=0;entryDx=0;entryDy=0;" edge="1" parent="1" source="XQmCyHVSKKdl3dzrTI3q-5" target="XQmCyHVSKKdl3dzrTI3q-11">
          <mxGeometry relative="1" as="geometry">
            <mxPoint x="215" y="230" as="sourcePoint" />
            <mxPoint x="140" y="570" as="targetPoint" />
            <Array as="points">
              <mxPoint x="140" y="230" />
            </Array>
          </mxGeometry>
        </mxCell>
        <mxCell id="XQmCyHVSKKdl3dzrTI3q-11" value="Показать информацию об объектах" style="shape=process;whiteSpace=wrap;html=1;backgroundOutline=1;" vertex="1" parent="1">
          <mxGeometry x="80" y="260" width="120" height="60" as="geometry" />
        </mxCell>
        <mxCell id="XQmCyHVSKKdl3dzrTI3q-15" value="" style="edgeStyle=orthogonalEdgeStyle;rounded=0;orthogonalLoop=1;jettySize=auto;html=1;entryX=0.5;entryY=0;entryDx=0;entryDy=0;" edge="1" parent="1" source="XQmCyHVSKKdl3dzrTI3q-11" target="XQmCyHVSKKdl3dzrTI3q-14">
          <mxGeometry relative="1" as="geometry">
            <mxPoint x="140" y="320" as="sourcePoint" />
            <mxPoint x="140" y="570" as="targetPoint" />
            <Array as="points" />
          </mxGeometry>
        </mxCell>
        <mxCell id="XQmCyHVSKKdl3dzrTI3q-14" value="Получить оценку и id объекта недвижимости" style="shape=process;whiteSpace=wrap;html=1;backgroundOutline=1;" vertex="1" parent="1">
          <mxGeometry x="80" y="350" width="120" height="60" as="geometry" />
        </mxCell>
        <mxCell id="XQmCyHVSKKdl3dzrTI3q-19" style="edgeStyle=orthogonalEdgeStyle;rounded=0;orthogonalLoop=1;jettySize=auto;html=1;" edge="1" parent="1" source="XQmCyHVSKKdl3dzrTI3q-16" target="XQmCyHVSKKdl3dzrTI3q-18">
          <mxGeometry relative="1" as="geometry" />
        </mxCell>
        <mxCell id="XQmCyHVSKKdl3dzrTI3q-16" value="Рассчитать рейтинг объекта недвижимости" style="shape=process;whiteSpace=wrap;html=1;backgroundOutline=1;" vertex="1" parent="1">
          <mxGeometry x="80" y="530" width="120" height="60" as="geometry" />
        </mxCell>
        <mxCell id="XQmCyHVSKKdl3dzrTI3q-21" style="edgeStyle=orthogonalEdgeStyle;rounded=0;orthogonalLoop=1;jettySize=auto;html=1;" edge="1" parent="1" source="XQmCyHVSKKdl3dzrTI3q-18" target="XQmCyHVSKKdl3dzrTI3q-20">
          <mxGeometry relative="1" as="geometry" />
        </mxCell>
        <mxCell id="XQmCyHVSKKdl3dzrTI3q-18" value="Рассчитать цену недвижимости, основываясь на рейтинге" style="shape=process;whiteSpace=wrap;html=1;backgroundOutline=1;" vertex="1" parent="1">
          <mxGeometry x="80" y="620" width="120" height="60" as="geometry" />
        </mxCell>
        <mxCell id="XQmCyHVSKKdl3dzrTI3q-23" style="edgeStyle=orthogonalEdgeStyle;rounded=0;orthogonalLoop=1;jettySize=auto;html=1;" edge="1" parent="1" source="XQmCyHVSKKdl3dzrTI3q-20" target="XQmCyHVSKKdl3dzrTI3q-22">
          <mxGeometry relative="1" as="geometry">
            <Array as="points">
              <mxPoint x="140" y="810" />
              <mxPoint x="280" y="810" />
            </Array>
          </mxGeometry>
        </mxCell>
        <mxCell id="XQmCyHVSKKdl3dzrTI3q-20" value="Записать данные в файл" style="shape=process;whiteSpace=wrap;html=1;backgroundOutline=1;" vertex="1" parent="1">
          <mxGeometry x="80" y="710" width="120" height="60" as="geometry" />
        </mxCell>
        <mxCell id="XQmCyHVSKKdl3dzrTI3q-22" value="Конец" style="strokeWidth=2;html=1;shape=mxgraph.flowchart.start_1;whiteSpace=wrap;" vertex="1" parent="1">
          <mxGeometry x="230" y="840" width="100" height="40" as="geometry" />
        </mxCell>
        <mxCell id="XQmCyHVSKKdl3dzrTI3q-24" style="edgeStyle=orthogonalEdgeStyle;rounded=0;orthogonalLoop=1;jettySize=auto;html=1;entryX=0.5;entryY=0;entryDx=0;entryDy=0;entryPerimeter=0;" edge="1" parent="1" source="XQmCyHVSKKdl3dzrTI3q-5" target="XQmCyHVSKKdl3dzrTI3q-22">
          <mxGeometry relative="1" as="geometry">
            <Array as="points">
              <mxPoint x="430" y="230" />
              <mxPoint x="430" y="810" />
              <mxPoint x="280" y="810" />
            </Array>
          </mxGeometry>
        </mxCell>
      </root>
    </mxGraphModel>
  </diagram>
</mxfile>
